<?xml version="1.0" encoding="utf-8"?>
<!-- Generator: Adobe Illustrator 27.5.0, SVG Export Plug-In . SVG Version: 6.00 Build 0)  -->
<svg version="1.1" xmlns="http://www.w3.org/2000/svg" xmlns:xlink="http://www.w3.org/1999/xlink" x="0px" y="0px"
	 viewBox="0 0 500 500" style="enable-background:new 0 0 500 500;" xml:space="preserve">
<g id="Background_Simple">
	<g>
		<path style="fill:#92E3A9;" d="M446.328,145.288c0,0-80.396-115.753-180.779-128.034C176.938,6.414,94.687,48.785,83.239,140.348
			c-4.079,32.625-11.343,68.717-24.243,98.484c-14.464,33.377-39.156,61.171-20.241,125.34
			c18.915,64.17,98.761,122.114,156.813,121.967c58.052-0.146,112.585-52.893,157.569-100.88
			C398.121,337.273,541.403,292.168,446.328,145.288z"/>
		<path style="opacity:0.7;fill:#FFFFFF;" d="M446.328,145.288c0,0-80.396-115.753-180.779-128.034
			C176.938,6.414,94.687,48.785,83.239,140.348c-4.079,32.625-11.343,68.717-24.243,98.484
			c-14.464,33.377-39.156,61.171-20.241,125.34c18.915,64.17,98.761,122.114,156.813,121.967
			c58.052-0.146,112.585-52.893,157.569-100.88C398.121,337.273,541.403,292.168,446.328,145.288z"/>
	</g>
</g>
<g id="Poster">
	<g style="opacity:0.3;">
		
			<rect x="41.07" y="35.704" style="fill:none;stroke:#263238;stroke-linecap:round;stroke-linejoin:round;stroke-miterlimit:10;" width="129.699" height="187.6"/>
		<polygon style="fill:none;stroke:#263238;stroke-linecap:round;stroke-linejoin:round;stroke-miterlimit:10;" points="
			124.508,161.158 111.559,161.158 111.559,148.209 89.978,148.209 89.978,161.158 77.029,161.158 77.029,182.739 89.978,182.739 
			89.978,195.688 111.559,195.688 111.559,182.739 124.508,182.739 		"/>
		<polygon style="fill:none;stroke:#263238;stroke-linecap:round;stroke-linejoin:round;stroke-miterlimit:10;" points="
			117.203,164.478 108.238,164.478 108.238,155.513 93.298,155.513 93.298,164.478 84.333,164.478 84.333,179.419 93.298,179.419 
			93.298,188.383 108.238,188.383 108.238,179.419 117.203,179.419 		"/>
		<g>
			<path style="fill:none;stroke:#263238;stroke-linecap:round;stroke-linejoin:round;stroke-miterlimit:10;" d="M63.133,93.993
				c-2.455,0-4.399-0.516-5.836-1.549c-1.437-1.032-2.462-2.499-3.075-4.399c-0.614-1.9-0.92-4.107-0.92-6.622V69.257
				c0-2.604,0.314-4.848,0.943-6.734c0.628-1.885,1.729-3.337,3.299-4.354c1.571-1.017,3.704-1.526,6.398-1.526
				c2.603,0,4.661,0.434,6.173,1.302c1.511,0.869,2.596,2.095,3.254,3.681c0.658,1.587,0.988,3.472,0.988,5.657v2.11h-7.228v-2.559
				c0-0.957-0.061-1.803-0.18-2.536c-0.12-0.733-0.397-1.309-0.831-1.728c-0.434-0.419-1.13-0.628-2.087-0.628
				c-0.988,0-1.706,0.254-2.155,0.763c-0.449,0.509-0.734,1.16-0.853,1.953c-0.12,0.794-0.18,1.639-0.18,2.537v16.116
				c0,1.018,0.09,1.931,0.27,2.739c0.179,0.808,0.516,1.437,1.01,1.885c0.494,0.449,1.205,0.673,2.133,0.673
				c0.927,0,1.646-0.239,2.155-0.718c0.508-0.478,0.86-1.129,1.055-1.953c0.194-0.823,0.292-1.758,0.292-2.806v-3.861h-3.546v-4.489
				h10.235v18.675h-4.849l-0.449-3.277c-0.479,1.108-1.197,2.021-2.155,2.739C66.036,93.634,64.75,93.993,63.133,93.993z"/>
			<path style="fill:none;stroke:#263238;stroke-linecap:round;stroke-linejoin:round;stroke-miterlimit:10;" d="M77.723,93.455
				l7.048-36.363h8.215l7.003,36.363h-6.869l-1.302-7.991h-5.746l-1.392,7.991H77.723z M86.747,80.93h4.354l-2.2-14.68L86.747,80.93
				z"/>
			<path style="fill:none;stroke:#263238;stroke-linecap:round;stroke-linejoin:round;stroke-miterlimit:10;" d="M103.536,93.455
				l0.628-36.363h7.856l4.489,22.94l4.804-22.94h7.587l0.628,36.363h-5.387l-0.583-24.646l-4.624,24.646h-4.624l-4.848-24.826
				l-0.494,24.826H103.536z"/>
			<path style="fill:none;stroke:#263238;stroke-linecap:round;stroke-linejoin:round;stroke-miterlimit:10;" d="M134.467,93.455
				V57.091h15.847v5.118h-8.439v9.652h6.509v5.163h-6.509v11.403h8.529v5.028H134.467z"/>
			<path style="fill:none;stroke:#263238;stroke-linecap:round;stroke-linejoin:round;stroke-miterlimit:10;" d="M88.767,139.82
				c-2.664,0-4.774-0.479-6.33-1.437c-1.556-0.958-2.671-2.327-3.344-4.107c-0.673-1.78-1.01-3.913-1.01-6.397V114.32
				c0-2.484,0.337-4.608,1.01-6.374c0.673-1.766,1.788-3.112,3.344-4.04c1.556-0.927,3.666-1.392,6.33-1.392
				c2.693,0,4.826,0.471,6.397,1.414c1.571,0.943,2.694,2.289,3.367,4.04c0.673,1.751,1.01,3.868,1.01,6.352v13.558
				c0,2.485-0.337,4.617-1.01,6.397c-0.673,1.781-1.796,3.15-3.367,4.107C93.593,139.34,91.461,139.82,88.767,139.82z
				 M88.767,134.477c0.958,0,1.661-0.216,2.11-0.651c0.449-0.433,0.748-1.017,0.898-1.75c0.149-0.733,0.225-1.519,0.225-2.357
				v-17.194c0-0.838-0.075-1.616-0.225-2.334c-0.15-0.718-0.449-1.294-0.898-1.729c-0.449-0.433-1.152-0.651-2.11-0.651
				c-0.898,0-1.571,0.217-2.02,0.651c-0.449,0.434-0.749,1.01-0.898,1.729c-0.15,0.718-0.225,1.497-0.225,2.334v17.194
				c0,0.838,0.067,1.624,0.202,2.357c0.135,0.733,0.426,1.317,0.876,1.75C87.151,134.261,87.839,134.477,88.767,134.477z"/>
			<path style="fill:none;stroke:#263238;stroke-linecap:round;stroke-linejoin:round;stroke-miterlimit:10;" d="M104.479,139.326
				v-36.363h5.163l8.08,18.945v-18.945h6.105v36.363h-4.938l-8.08-20.112v20.112H104.479z"/>
		</g>
		<path style="fill:none;stroke:#263238;stroke-linecap:round;stroke-linejoin:round;stroke-miterlimit:10;" d="M71.29,131.152
			c-11.502,0.475-11.887,0.859-12.362,12.362c-0.475-11.502-0.859-11.887-12.362-12.362c11.502-0.475,11.887-0.859,12.362-12.362
			C59.403,130.292,59.787,130.677,71.29,131.152z"/>
		<path style="fill:none;stroke:#263238;stroke-linecap:round;stroke-linejoin:round;stroke-miterlimit:10;" d="M167.812,51.064
			c-11.745,0.485-12.138,0.877-12.623,12.623c-0.485-11.745-0.878-12.138-12.623-12.623c11.745-0.485,12.138-0.878,12.623-12.623
			C155.674,50.187,156.067,50.58,167.812,51.064z"/>
		
			<circle style="fill:none;stroke:#263238;stroke-linecap:round;stroke-linejoin:round;stroke-miterlimit:10;" cx="150.073" cy="113.252" r="6.261"/>
		<path style="fill:none;stroke:#263238;stroke-linecap:round;stroke-linejoin:round;stroke-miterlimit:10;" d="M85.377,48.035
			c0-1.729-1.402-3.131-3.131-3.131s-3.13,1.402-3.13,3.131s1.402,3.13,3.13,3.13S85.377,49.764,85.377,48.035z"/>
		<path style="fill:none;stroke:#263238;stroke-linecap:round;stroke-linejoin:round;stroke-miterlimit:10;" d="M94.768,48.035
			c0-1.729-1.401-3.131-3.13-3.131c-1.729,0-3.131,1.402-3.131,3.131s1.402,3.13,3.131,3.13
			C93.367,51.165,94.768,49.764,94.768,48.035z"/>
		<path style="fill:none;stroke:#263238;stroke-linecap:round;stroke-linejoin:round;stroke-miterlimit:10;" d="M104.16,48.035
			c0-1.729-1.402-3.131-3.131-3.131s-3.13,1.402-3.13,3.131s1.402,3.13,3.13,3.13S104.16,49.764,104.16,48.035z"/>
		<path style="fill:none;stroke:#263238;stroke-linecap:round;stroke-linejoin:round;stroke-miterlimit:10;" d="M78.333,213.949
			h-20.87c-2.161,0-3.913-1.752-3.913-3.913l0,0c0-2.161,1.752-3.913,3.913-3.913h20.87c2.161,0,3.913,1.752,3.913,3.913l0,0
			C82.246,212.197,80.494,213.949,78.333,213.949z"/>
		<path style="fill:none;stroke:#263238;stroke-linecap:round;stroke-linejoin:round;stroke-miterlimit:10;" d="M159.986,129.948
			h-20.87c-2.161,0-3.913-1.752-3.913-3.913l0,0c0-2.161,1.752-3.913,3.913-3.913h20.87c2.161,0,3.913,1.752,3.913,3.913l0,0
			C163.899,128.196,162.147,129.948,159.986,129.948z"/>
	</g>
</g>
<g id="Floor">
	
		<line style="fill:none;stroke:#263238;stroke-linecap:round;stroke-linejoin:round;stroke-miterlimit:10;" x1="49.407" y1="440.393" x2="465.758" y2="440.393"/>
</g>
<g id="Plant">
	<g>
		<g>
			<path style="fill:#263238;" d="M87.269,311.537l0.003-0.006c0.019-0.049-0.004-0.105-0.053-0.126
				c-0.05-0.022-0.108,0.001-0.129,0.051c-2.977,6.874-5.069,14.09-6.817,21.368c-1.686,7.298-2.907,14.703-3.761,22.152
				l-0.533,5.599c-0.082,0.934-0.184,1.867-0.251,2.802l-0.153,2.809c-0.081,1.874-0.196,3.747-0.249,5.622l0.051,5.627l0.062,2.812
				c0.042,0.937,0.109,1.872,0.173,2.808c0.142,1.87,0.256,3.741,0.427,5.607c0.359,3.73,0.919,7.441,1.497,11.135
				c0.007,0.047,0.048,0.084,0.098,0.083c0.054,0,0.098-0.044,0.098-0.099v-0.005c-0.01-1.876-0.089-3.741-0.131-5.608
				c-0.054-1.865-0.216-3.721-0.19-5.587c0.009-1.865-0.04-3.725-0.061-5.585l-0.052-2.789l0.05-2.789l0.025-5.576l0.151-5.573
				l0.058-2.789c0.036-0.929,0.105-1.856,0.156-2.784l0.342-5.569c0.652-7.411,1.671-14.796,3.155-22.095
				C82.716,325.743,84.548,318.48,87.269,311.537z"/>
			<path style="fill:#263238;" d="M88.068,340.693c0.014-0.05-0.012-0.106-0.061-0.123c-0.051-0.018-0.108,0.009-0.125,0.061
				c-1.605,4.633-2.886,9.372-3.969,14.161c-1.035,4.797-1.848,9.657-2.343,14.554c-0.495,4.879-1.041,9.764-1.108,14.67
				c-0.075,4.904,0.003,9.813,0.521,14.712c0.005,0.045,0.041,0.083,0.088,0.088c0.055,0.006,0.103-0.034,0.109-0.088
				c0.566-4.885,0.912-9.757,1.25-14.628c0.346-4.869,0.392-9.751,0.71-14.622c0.294-4.856,0.904-9.692,1.739-14.496
				C85.698,350.175,86.719,345.388,88.068,340.693z"/>
			<path style="fill:#263238;" d="M104.231,350.949c-0.029-0.046-0.09-0.06-0.136-0.031c-4.046,2.562-7.654,5.788-10.808,9.423
				c-1.55,1.845-2.991,3.776-4.226,5.876l-0.868,1.639l-0.68,1.702c-0.245,0.565-0.417,1.146-0.593,1.726
				c-0.174,0.581-0.37,1.159-0.527,1.744c-1.214,4.685-2.018,9.458-2.236,14.257c-0.195,4.796-0.104,9.599,0.536,14.36
				c0.007,0.045,0.044,0.082,0.091,0.085c0.054,0.004,0.102-0.037,0.106-0.091l1.232-14.215c0.491-4.699,0.792-9.427,1.801-14.016
				c0.128-0.572,0.293-1.131,0.438-1.697c0.147-0.566,0.289-1.135,0.498-1.674l0.577-1.643l0.743-1.552
				c1.095-2.053,2.433-4.018,3.872-5.88c2.886-3.725,6.283-7.121,10.148-9.878l0.005-0.004
				C104.248,351.052,104.26,350.993,104.231,350.949z"/>
			<path style="fill:#263238;" d="M96.409,369.212c-2.203,1.422-3.676,3.659-4.915,5.908c-1.181,2.3-2.111,4.738-2.754,7.238
				c-0.194,0.619-0.346,1.247-0.481,1.878l-0.446,1.89c-0.227,1.269-0.405,2.552-0.477,3.839c-0.017,1.29-0.054,2.578,0.033,3.863
				c0.107,1.285,0.253,2.568,0.507,3.839c0.009,0.037,0.039,0.071,0.079,0.079c0.055,0.011,0.108-0.025,0.118-0.079
				c0.311-1.268,0.515-2.525,0.681-3.779c0.2-1.251,0.394-2.495,0.544-3.739c0.183-1.239,0.347-2.475,0.443-3.724
				c0.173-1.232,0.264-2.492,0.534-3.709c0.432-2.464,1.145-4.87,2.108-7.171c0.959-2.282,2.207-4.556,4.127-6.163l0.015-0.013
				c0.038-0.031,0.047-0.086,0.019-0.128C96.514,369.196,96.454,369.183,96.409,369.212z"/>
			<path style="fill:#263238;" d="M73.74,383.451c-0.532-6.311-1.572-12.558-2.556-18.802c-0.987-6.245-2.075-12.471-3.217-18.686
				c-1.183-6.208-2.419-12.403-3.758-18.577c-0.011-0.051-0.062-0.086-0.114-0.076c-0.054,0.01-0.089,0.061-0.079,0.115
				c1.08,6.221,2.057,12.459,2.98,18.703c0.947,6.24,1.839,12.487,2.628,18.745c0.771,6.261,1.372,12.536,2.157,18.786l2.308,18.785
				c0.006,0.047,0.045,0.085,0.094,0.087c0.054,0.003,0.101-0.04,0.103-0.094c0.072-1.583,0.074-3.165,0.113-4.752
				c0.014-1.586-0.064-3.165-0.092-4.75C74.247,389.762,73.977,386.608,73.74,383.451z"/>
			<path style="fill:#263238;" d="M69.956,383.36c-0.337-2.5-0.797-4.984-1.274-7.461l-0.886-3.684
				c-0.29-1.228-0.565-2.459-0.925-3.672c-1.259-4.888-2.868-9.694-4.823-14.35l-0.757-1.737l-0.841-1.699
				c-0.535-1.144-1.181-2.234-1.795-3.336c-1.319-2.149-2.689-4.297-4.555-6.039c-0.038-0.035-0.097-0.035-0.135,0.001
				c-0.039,0.038-0.04,0.1-0.002,0.139l0.009,0.01c1.725,1.788,2.982,3.995,4.167,6.176c0.549,1.122,1.129,2.225,1.598,3.384
				l0.741,1.717l0.657,1.753c1.748,4.672,3.15,9.473,4.205,14.355c0.575,2.428,0.957,4.902,1.427,7.35l0.591,3.699
				c0.214,1.23,0.477,2.451,0.65,3.688c0.394,2.467,0.848,4.928,1.278,7.397c0.382,2.475,0.835,4.946,1.356,7.42
				c0.01,0.045,0.05,0.081,0.097,0.081c0.055,0,0.099-0.044,0.099-0.098c0.011-2.521-0.048-5.044-0.176-7.563
				C70.516,388.374,70.218,385.869,69.956,383.36z"/>
			<path style="fill:#263238;" d="M64.734,383.682c-1.17-3.311-2.522-6.552-3.996-9.73c-1.513-3.161-3.146-6.261-5.026-9.214
				c-0.029-0.042-0.089-0.058-0.133-0.032c-0.047,0.028-0.062,0.088-0.035,0.135c1.642,3.067,3.031,6.266,4.29,9.502
				c1.281,3.227,2.435,6.502,3.403,9.829c0.987,3.324,1.694,6.712,2.578,10.05c0.93,3.336,1.682,6.706,2.707,10.085
				c0.012,0.04,0.05,0.073,0.095,0.073c0.055,0.001,0.1-0.043,0.101-0.098c0.05-3.525-0.296-7.048-0.982-10.498
				C67.116,390.313,65.896,386.99,64.734,383.682z"/>
			<path style="fill:#263238;" d="M64.517,394.711c-0.598-2.073-1.619-4.005-2.778-5.825c-1.139-1.829-2.46-3.559-4.043-5.024
				c-0.816-0.707-1.65-1.387-2.572-1.94c-0.908-0.568-1.872-1.047-2.917-1.319c-0.046-0.012-0.094,0.01-0.114,0.055
				c-0.022,0.049,0,0.107,0.05,0.13l0.012,0.005c1.89,0.841,3.488,2.234,4.839,3.759c1.369,1.527,2.461,3.28,3.371,5.105
				c0.957,1.813,1.452,3.816,2.285,5.683c0.368,0.957,0.732,1.921,1.158,2.877c0.36,0.976,0.76,1.948,1.269,2.916l0.003,0.005
				c0.016,0.031,0.048,0.052,0.085,0.054c0.056,0.002,0.103-0.041,0.105-0.097c0.045-1.079-0.018-2.154-0.12-3.225
				C64.994,396.809,64.77,395.757,64.517,394.711z"/>
		</g>
		<path style="fill:#92E3A9;" d="M64.907,336.419c0,0-10.34-2.386-12.727-13.522c-2.386-11.136,5.303-6.363-1.591-23.863
			c-6.894-17.499-5.303-21.476-2.917-26.514c2.386-5.038,3.712-3.447,5.833,3.182c2.121,6.628,9.81,16.969,12.727,36.324
			C69.149,331.382,64.907,336.419,64.907,336.419z"/>
		<path style="fill:#92E3A9;" d="M85.323,317.595c0,0-6.894-2.386-7.159-15.378c-0.265-12.992,5.038-10.34,5.833-26.514
			c0.795-16.174,1.856-27.575,4.772-27.84c2.917-0.265,10.606,7.954,13.257,25.984c2.651,18.029-3.447,29.96-8.75,35.263
			C87.974,314.413,85.323,317.595,85.323,317.595z"/>
		<path style="fill:#92E3A9;" d="M61.195,352.063c0,0-1.591-9.545-4.773-14.052c-3.182-4.507-10.076-8.485-14.583-17.234
			c-4.507-8.75-9.545-12.992-9.28-0.53c0.265,12.461,5.833,18.825,12.727,23.067C52.181,347.555,61.195,352.063,61.195,352.063z"/>
		<path style="fill:#92E3A9;" d="M58.279,368.501c0,0-6.363-12.196-15.643-21.211c-9.28-9.015-16.704-13.522-14.053-9.015
			c2.652,4.507,5.833,4.242,10.34,12.196c4.507,7.954,3.182,13.787,9.545,18.295C54.832,373.274,58.279,368.501,58.279,368.501z"/>
		<path style="fill:#92E3A9;" d="M57.483,384.145c-0.265-0.795-0.53-6.629-9.545-11.401c-9.015-4.772-17.499-2.917-16.439-0.53
			c1.06,2.386,6.628,6.364,12.196,8.75C49.264,383.349,57.483,384.145,57.483,384.145z"/>
		<path style="fill:#92E3A9;" d="M84.793,352.593c0,0-3.977-5.038-1.856-15.643c2.121-10.606,6.894-7.954,12.197-13.522
			c5.303-5.568,4.242-6.363,9.545-12.196c5.303-5.833,10.076-9.015,12.197-6.628c2.121,2.386-1.06,9.81-4.242,14.052
			c-3.182,4.242-8.219,6.363-10.605,11.666c-2.386,5.303-1.326,13.787-7.424,17.764C88.505,352.063,84.793,352.593,84.793,352.593z"
			/>
		<path style="fill:#92E3A9;" d="M98.049,355.51c0,0,9.545-10.871,16.439-18.825c6.894-7.954,9.545-14.052,9.81-8.75
			c0.265,5.303,2.386,9.545-3.182,16.439C115.549,351.267,98.049,355.51,98.049,355.51z"/>
		<path style="fill:#92E3A9;" d="M93.012,373.009c0,0-0.265-4.242,14.848-14.053c15.113-9.81,21.476-11.666,19.885-7.689
			c-1.591,3.977-8.219,7.954-15.378,15.113C105.208,373.539,93.012,373.009,93.012,373.009z"/>
		<path style="fill:none;stroke:#263238;stroke-linecap:round;stroke-linejoin:round;stroke-miterlimit:10;" d="M65.538,335.29
			c0,0-3.547-19.021-7.259-32.543c-3.712-13.522-6.098-21.741-6.098-21.741"/>
		<path style="fill:none;stroke:#263238;stroke-linecap:round;stroke-linejoin:round;stroke-miterlimit:10;" d="M84.712,317.795
			c0,0,6.444-20.616,8.565-33.078c2.121-12.461-0.265-21.741-1.326-27.309"/>
		<path style="fill:none;stroke:#263238;stroke-linecap:round;stroke-linejoin:round;stroke-miterlimit:10;" d="M60.36,351.665
			c0,0-3.937-7.026-9.77-13.92c-5.833-6.894-10.34-10.605-12.992-17.234"/>
		<path style="fill:none;stroke:#263238;stroke-linecap:round;stroke-linejoin:round;stroke-miterlimit:10;" d="M84.793,352.593
			c0,0,2.121-12.727,7.159-19.355s15.113-16.969,19.09-23.597"/>
		<path style="fill:none;stroke:#263238;stroke-linecap:round;stroke-linejoin:round;stroke-miterlimit:10;" d="M56.86,383.855
			c0,0-8.922-5.809-15.285-8.99"/>
		<path style="fill:#263238;stroke:#263238;stroke-linecap:round;stroke-linejoin:round;stroke-miterlimit:10;" d="M86.185,440.089
			H67.757c0,0-16.671-37.04-9.214-46.134c5.842-7.125,31.012-7.125,36.855,0C102.856,403.049,86.185,440.089,86.185,440.089z"/>
	</g>
</g>
<g id="Machine">
	<g>
		<g>
			<path style="fill:#263238;stroke:#263238;stroke-linecap:round;stroke-linejoin:round;stroke-miterlimit:10;" d="
				M184.116,248.505l30.486-20.287l39.022-112.187l-12.909-50.512c-0.459-1.795,4.842-3.343,6.553-2.63l50.865,22.657v354.789
				h-91.457V279.429L184.116,248.505z"/>
			<path style="fill:#92E3A9;stroke:#263238;stroke-linecap:round;stroke-linejoin:round;stroke-miterlimit:10;" d="
				M187.628,248.505l30.486-20.287l39.022-112.187l-12.909-50.512c-0.459-1.795,1.331-3.343,3.041-2.63l54.377,22.657v354.789
				h-91.457V279.429L187.628,248.505z"/>
			<polygon style="fill:#9C9C9C;stroke:#263238;stroke-linecap:round;stroke-linejoin:round;stroke-miterlimit:10;" points="
				261.212,113.333 277.464,116.708 373.69,116.708 374.583,113.333 			"/>
			<polygon style="fill:#263238;stroke:#263238;stroke-linecap:round;stroke-linejoin:round;stroke-miterlimit:10;" points="
				222.154,228.855 277.464,116.708 378.85,116.708 334.669,228.217 			"/>
			<g>
				<g>
					<polygon style="fill:#787878;" points="242.071,210.366 282.134,129.133 355.572,129.133 323.57,209.904 					"/>
					<polygon style="fill:#595959;" points="255.672,182.788 242.071,210.366 323.57,209.903 334.313,182.788 					"/>
					<polygon style="fill:#969696;" points="347.237,150.168 355.572,129.133 282.135,129.133 271.76,150.168 					"/>
				</g>
				<path style="fill:#263238;" d="M317.257,169.374h-24.278c-0.872,0-1.58-0.707-1.58-1.58v-0.499c0-0.872,0.707-1.58,1.58-1.58
					h24.278c0.872,0,1.58,0.707,1.58,1.58v0.499C318.836,168.667,318.129,169.374,317.257,169.374z"/>
				<path style="fill:#263238;" d="M286.829,143.602l-10.802,21.948c-0.459,0.933-1.553,1.353-2.444,0.939l0,0
					c-0.891-0.414-1.241-1.505-0.782-2.438l10.802-21.948c0.459-0.932,1.553-1.353,2.444-0.939l0,0
					C286.938,141.578,287.288,142.669,286.829,143.602z"/>
				<path style="fill:#263238;" d="M326.46,130.188l-18.899,36.418c-0.459,0.932-1.553,1.353-2.444,0.939l0,0
					c-0.891-0.414-1.241-1.505-0.782-2.438l18.898-36.418c0.459-0.932,1.553-1.353,2.444-0.939l0,0
					C326.569,128.164,326.919,129.256,326.46,130.188z"/>
				<path style="fill:#263238;" d="M333.552,165.941l-9.023,22.738c-0.383,0.966-1.441,1.472-2.362,1.13l0,0
					c-0.921-0.342-1.357-1.402-0.973-2.368l9.023-22.738c0.383-0.966,1.441-1.472,2.362-1.13l0,0
					C333.499,163.915,333.935,164.975,333.552,165.941z"/>
				<path style="fill:#263238;" d="M302.014,161.448h-24.278c-0.872,0-1.58-0.707-1.58-1.58v-0.499c0-0.872,0.707-1.58,1.58-1.58
					h24.278c0.872,0,1.579,0.707,1.579,1.58v0.499C303.594,160.741,302.886,161.448,302.014,161.448z"/>
				<path style="fill:#263238;" d="M327.317,178.825h-24.278c-0.872,0-1.58-0.707-1.58-1.58v-0.499c0-0.872,0.707-1.58,1.58-1.58
					h24.278c0.872,0,1.579,0.707,1.579,1.58v0.499C328.897,178.118,328.19,178.825,327.317,178.825z"/>
				<path style="fill:#92E3A9;" d="M302.452,159.887c0-1.158-0.939-2.097-2.097-2.097c-1.158,0-2.097,0.939-2.097,2.097
					c0,1.158,0.939,2.097,2.097,2.097C301.513,161.984,302.452,161.045,302.452,159.887z"/>
				<path style="fill:#92E3A9;" d="M285.848,214.475c0-1.158-0.939-2.097-2.097-2.097c-1.158,0-2.097,0.939-2.097,2.097
					c0,1.158,0.939,2.097,2.097,2.097C284.909,216.571,285.848,215.633,285.848,214.475z"/>
				<path style="fill:#92E3A9;" d="M298.611,214.475c0-1.158-0.939-2.097-2.097-2.097c-1.158,0-2.097,0.939-2.097,2.097
					c0,1.158,0.939,2.097,2.097,2.097C297.672,216.571,298.611,215.633,298.611,214.475z"/>
				<path style="fill:#92E3A9;" d="M311.373,214.475c0-1.158-0.939-2.097-2.097-2.097c-1.158,0-2.097,0.939-2.097,2.097
					c0,1.158,0.939,2.097,2.097,2.097C310.434,216.571,311.373,215.633,311.373,214.475z"/>
				<path style="fill:#FFFFFF;" d="M331.298,171.508c0-1.158-0.939-2.097-2.097-2.097c-1.158,0-2.097,0.939-2.097,2.097
					c0,1.158,0.939,2.097,2.097,2.097C330.36,173.605,331.298,172.667,331.298,171.508z"/>
				<path style="fill:#92E3A9;" d="M265.196,198.105c-0.621-0.877-2.045-0.877-3.181,0l-0.736,0.573l-0.406-0.573
					c-0.311-0.438-0.823-0.658-1.398-0.658c-0.576,0-1.216,0.219-1.785,0.658c-1.134,0.88-1.549,2.304-0.929,3.184l0.406,0.569
					l2.252,3.184l4.112-3.184l0.735-0.569c0.57-0.439,0.957-1.014,1.125-1.59C265.56,199.122,265.509,198.546,265.196,198.105z"/>
				<path style="fill:#92E3A9;" d="M275.866,198.105c-0.621-0.877-2.044-0.877-3.181,0l-0.736,0.573l-0.406-0.573
					c-0.311-0.438-0.822-0.658-1.398-0.658s-1.216,0.219-1.785,0.658c-1.134,0.88-1.549,2.304-0.929,3.184l0.407,0.569l2.252,3.184
					l4.112-3.184l0.735-0.569c0.57-0.439,0.957-1.014,1.125-1.59C276.23,199.122,276.179,198.546,275.866,198.105z"/>
				<line style="fill:none;stroke:#FFFFFF;stroke-miterlimit:10;" x1="333.99" y1="123.876" x2="344.25" y2="123.876"/>
				<line style="fill:none;stroke:#FFFFFF;stroke-miterlimit:10;" x1="289.058" y1="124.23" x2="298.257" y2="124.23"/>
			</g>
		</g>
		<polygon style="fill:#92E3A9;stroke:#263238;stroke-linecap:round;stroke-linejoin:round;stroke-miterlimit:10;" points="
			222.154,228.855 334.669,228.217 304.183,248.505 191.297,249.143 		"/>
		<g>
			<path style="fill:#92E3A9;stroke:#263238;stroke-linecap:round;stroke-linejoin:round;stroke-miterlimit:10;" d="
				M300.258,236.378c0,1.323-2.144,2.395-4.789,2.395c-2.645,0-4.789-1.072-4.789-2.395c0-1.322,2.144-2.395,4.789-2.395
				C298.114,233.983,300.258,235.055,300.258,236.378z"/>
			<path style="fill:#92E3A9;stroke:#263238;stroke-linecap:round;stroke-linejoin:round;stroke-miterlimit:10;" d="M283.05,239.085
				c0,1.322-2.144,2.395-4.789,2.395s-4.789-1.072-4.789-2.395c0-1.323,2.144-2.395,4.789-2.395S283.05,237.762,283.05,239.085z"/>
			<path style="fill:#263238;stroke:#263238;stroke-linecap:round;stroke-linejoin:round;stroke-miterlimit:10;" d="
				M315.159,233.983c0,1.323-2.144,2.395-4.789,2.395c-2.645,0-4.789-1.072-4.789-2.395c0-1.322,2.144-2.395,4.789-2.395
				C313.014,231.588,315.159,232.66,315.159,233.983z"/>
		</g>
		
			<rect x="209.815" y="279.429" style="fill:#263238;stroke:#263238;stroke-linecap:round;stroke-linejoin:round;stroke-miterlimit:10;" width="113.415" height="160.964"/>
		<rect x="245.904" y="304.4" style="fill:#595959;" width="41.238" height="58.528"/>
		<polygon style="fill:#263238;stroke:#263238;stroke-linecap:round;stroke-linejoin:round;stroke-miterlimit:10;" points="
			300.671,248.505 187.256,248.505 209.815,279.429 323.231,279.429 		"/>
		<polygon style="fill:#92E3A9;stroke:#263238;stroke-linecap:round;stroke-linejoin:round;stroke-miterlimit:10;" points="
			248.474,67.476 359.934,67.476 374.583,113.333 261.212,113.333 		"/>
		<g>
			<path style="fill:#FFFFFF;" d="M278.68,80.005h-4.563l-3.926,20.207h3.868l0.776-4.447h3.196l0.718,4.447h3.822L278.68,80.005z
				 M275.206,93.253l1.204-8.164l1.216,8.164H275.206z"/>
			<path style="fill:#FFFFFF;" d="M293.769,90.358c0.648-0.29,1.147-0.66,1.505-1.135c0.359-0.475,0.614-1.031,0.753-1.667
				c0.139-0.649,0.208-1.378,0.208-2.212c0-0.232-0.012-0.452-0.023-0.66c-0.035-0.567-0.127-1.065-0.266-1.517
				c-0.116-0.405-0.29-0.764-0.498-1.065c-0.521-0.787-1.262-1.332-2.235-1.633c-0.973-0.313-2.142-0.463-3.509-0.463h-5.234v20.207
				h4.111v-9.16h1.448l2.316,9.16h4.215L293.769,90.358z M292.159,87.301c-0.162,0.44-0.428,0.764-0.811,0.984
				c-0.382,0.22-0.903,0.324-1.575,0.324h-1.193v-5.813h1.401c0.926,0,1.563,0.243,1.899,0.741c0.347,0.486,0.521,1.193,0.521,2.131
				C292.402,86.316,292.321,86.861,292.159,87.301z"/>
			<path style="fill:#FFFFFF;" d="M310.132,87.289v-1.702c0-1.158-0.174-2.177-0.51-3.069c-0.336-0.88-0.926-1.563-1.749-2.038
				c-0.822-0.486-1.957-0.73-3.404-0.73c-1.494,0-2.675,0.278-3.555,0.822c-0.868,0.556-1.482,1.332-1.83,2.339
				c-0.151,0.428-0.266,0.903-0.347,1.413c-0.116,0.66-0.174,1.401-0.174,2.189v7.261c0,1.332,0.174,2.501,0.521,3.509
				c0.347,1.007,0.961,1.783,1.83,2.351c0.22,0.139,0.463,0.266,0.73,0.37c0.764,0.324,1.714,0.486,2.826,0.486
				c1.482,0,2.629-0.266,3.439-0.787c0.822-0.533,1.39-1.239,1.726-2.154c0.336-0.903,0.498-1.945,0.498-3.127v-1.668h-3.984v1.969
				c0,0.486-0.035,0.938-0.093,1.367c-0.058,0.44-0.197,0.776-0.428,1.042c-0.22,0.255-0.602,0.382-1.135,0.382
				c-0.475,0-0.845-0.116-1.112-0.336c-0.255-0.22-0.428-0.544-0.521-0.973c-0.093-0.429-0.139-0.915-0.139-1.482v-9.183
				c0-0.51,0.035-0.984,0.104-1.413c0.069-0.417,0.22-0.764,0.475-1.031c0.243-0.266,0.648-0.394,1.193-0.394
				c0.556,0,0.938,0.127,1.158,0.382c0.232,0.255,0.371,0.591,0.417,0.996c0.046,0.405,0.081,0.845,0.081,1.309v1.899H310.132z"/>
			<path style="fill:#FFFFFF;" d="M320.137,80.005h-4.563l-3.914,20.207h3.856l0.776-4.447h3.196l0.718,4.447h3.821L320.137,80.005z
				 M316.674,93.253l1.193-8.164l1.227,8.164H316.674z"/>
			<path style="fill:#FFFFFF;" d="M336.905,82.738c-0.405-0.938-1.077-1.633-2.038-2.073c-0.961-0.44-2.293-0.66-4.007-0.66h-4.933
				v20.207h5.037c1.679,0,2.988-0.232,3.926-0.683c0.938-0.463,1.61-1.17,2.015-2.142c0.394-0.961,0.591-2.189,0.591-3.683V86.34
				C337.495,84.881,337.298,83.676,336.905,82.738z M333.28,94.145c0,0.706-0.035,1.285-0.116,1.76
				c-0.093,0.475-0.289,0.834-0.614,1.077c-0.324,0.243-0.868,0.359-1.633,0.359h-0.88V82.9h0.857c0.729,0,1.251,0.093,1.575,0.301
				c0.324,0.197,0.544,0.509,0.648,0.926c0.116,0.428,0.162,0.996,0.162,1.691V94.145z"/>
			<path style="fill:#FFFFFF;" d="M344.339,97.422v-6.346h3.613v-2.86h-3.613v-5.373h4.69v-2.837h-8.812v20.207h8.859v-2.791
				H344.339z"/>
		</g>
		<g>
			<path style="fill:#263238;stroke:#263238;stroke-linecap:round;stroke-linejoin:round;stroke-miterlimit:10;" d="
				M300.671,248.505l30.486-20.287l39.022-112.187L357.27,65.518c-0.459-1.795,4.842-3.343,6.553-2.63l46.025,20.641
				c2.931,1.221,4.84,4.084,4.84,7.259v349.547h-91.457V279.429L300.671,248.505z"/>
			<path style="fill:#92E3A9;" d="M418.197,90.786V440.33h-91.459V279.425l-22.558-30.919l30.49-20.288l0.301-0.857l2.362-6.797
				l36.13-103.862l0.232-0.672L373,113.333l-6.311-24.712l-0.012-0.058l-5.894-23.044c-0.371-1.436,0.706-2.721,2.027-2.802h0.035
				c0.15-0.012,0.313,0,0.475,0.035c0.081,0.012,0.174,0.023,0.266,0.058c0.093,0.023,0.174,0.046,0.243,0.081l49.528,20.636
				C416.286,84.753,418.197,87.614,418.197,90.786z"/>
			<g>
				<g>
					<g>
						<path style="fill:#263238;" d="M376.944,251.538c-1.104,0.666-2.536,0.689-3.69-0.061l-33.745-21.915
							c-1.608-1.046-2.067-3.197-1.021-4.806c1.047-1.61,3.197-2.066,4.805-1.022l33.746,21.916
							c1.608,1.045,2.066,3.196,1.021,4.806C377.764,250.911,377.38,251.275,376.944,251.538z"/>
					</g>
					<g>
						<path style="fill:#263238;" d="M418.323,188.245l-0.539-5.922c-0.173-1.911-1.864-3.318-3.775-3.145
							c-1.909,0.174-3.319,1.863-3.144,3.775l3.758,41.256c0.171,1.886,1.821,3.274,3.7,3.143V188.245z"/>
					</g>
					<g>
						<path style="fill:#FFFFFF;" d="M418.323,213.346c-9.868-0.794-20.068,1.374-29.191,6.88
							c-23.158,13.976-30.601,44.078-16.625,67.236c9.907,16.417,27.919,24.923,45.816,23.514V213.346z"/>
						<path style="fill:#263238;" d="M418.323,233.076l-39.404,23.78c-3.781,2.282-4.996,7.196-2.714,10.977l9.616,15.934
							c2.282,3.781,7.196,4.996,10.977,2.714l21.525-12.99V233.076z"/>
					</g>
					<path style="fill:#FFFFFF;" d="M418.323,176.357c-2.312-1.469-5.345-1.61-7.849-0.099c-3.524,2.127-4.657,6.708-2.53,10.232
						c2.127,3.524,6.708,4.657,10.232,2.53c0.051-0.031,0.097-0.067,0.148-0.1V176.357z"/>
					<path style="fill:#FFFFFF;" d="M349.573,227.813c-0.452,1.887-1.621,3.59-3.404,4.667c-0.405,0.243-0.811,0.44-1.239,0.602
						c-3.3,1.239-7.11-0.012-8.998-3.138c-0.498-0.822-0.811-1.691-0.961-2.582l2.362-6.797c0.347-0.313,0.718-0.602,1.135-0.845
						c3.52-2.131,8.094-0.996,10.225,2.524C349.747,223.98,350.002,225.984,349.573,227.813z"/>
					<path style="fill:#FFFFFF;" d="M400.474,263.745c1.823,3.021,0.852,6.947-2.169,8.77c-3.021,1.823-6.947,0.852-8.77-2.168
						c-1.823-3.021-0.852-6.947,2.169-8.77C394.725,259.753,398.651,260.724,400.474,263.745z"/>
				</g>
				<path style="fill:#263238;" d="M418.323,284.061l-9.793,5.91c-1.133,0.684-1.497,2.156-0.813,3.289
					c0.684,1.133,2.156,1.497,3.289,0.813l7.318-4.416V284.061z"/>
			</g>
			<g>
				<g>
					<g>
						<path style="fill:#263238;" d="M358.367,344.323c-0.617,0.372-1.417,0.385-2.061-0.034l-18.85-12.242
							c-0.898-0.584-1.154-1.786-0.57-2.685c0.585-0.899,1.786-1.154,2.684-0.571l18.851,12.243c0.898,0.584,1.154,1.785,0.57,2.685
							C358.825,343.973,358.611,344.176,358.367,344.323z"/>
					</g>
					<g>
						<path style="fill:#263238;" d="M382.35,330.544c-0.244,0.147-0.524,0.242-0.826,0.27c-1.067,0.097-2.012-0.689-2.108-1.756
							l-2.099-23.046c-0.098-1.068,0.689-2.012,1.756-2.109c1.067-0.097,2.012,0.689,2.109,1.757l2.099,23.046
							C383.35,329.47,382.966,330.172,382.35,330.544z"/>
					</g>
					<g>
						
							<ellipse transform="matrix(0.1883 -0.9821 0.9821 0.1883 -36.1022 656.8283)" style="fill:#FFFFFF;" cx="379.312" cy="350.255" rx="27.358" ry="27.358"/>
						<path style="fill:#263238;" d="M392.566,349.897l-21.021,12.686c-3.265,1.97-7.509,0.921-9.479-2.344l-2.852-4.726
							c-1.97-3.265-0.921-7.509,2.344-9.479l21.021-12.686c3.265-1.97,7.509-0.921,9.479,2.344l2.852,4.726
							C396.88,343.683,395.831,347.927,392.566,349.897z"/>
					</g>
					<path style="fill:#FFFFFF;" d="M382.813,303.684c-1.188-1.969-3.747-2.601-5.716-1.413c-1.969,1.188-2.601,3.747-1.413,5.715
						c1.188,1.969,3.747,2.601,5.716,1.413C383.368,308.211,384.001,305.652,382.813,303.684z"/>
					<path style="fill:#FFFFFF;" d="M342.586,327.961c-1.188-1.969-3.747-2.601-5.716-1.413c-1.969,1.188-2.601,3.747-1.413,5.715
						c1.188,1.969,3.747,2.601,5.716,1.413C343.142,332.488,343.774,329.929,342.586,327.961z"/>
					<path style="fill:#FFFFFF;" d="M389.079,340.54c1.018,1.687,0.476,3.881-1.211,4.899c-1.687,1.018-3.881,0.476-4.899-1.211
						c-1.018-1.687-0.476-3.881,1.211-4.899C385.867,338.31,388.061,338.853,389.079,340.54z"/>
					<path style="fill:#FFFFFF;" d="M371.512,351.142c1.018,1.687,0.476,3.881-1.211,4.899c-1.687,1.018-3.881,0.476-4.899-1.211
						c-1.018-1.687-0.476-3.881,1.211-4.899C368.3,348.912,370.493,349.455,371.512,351.142z"/>
				</g>
				<path style="fill:#263238;" d="M396.137,356.773l-18.898,11.405c-0.546,0.33-1.257,0.154-1.586-0.392l-0.189-0.313
					c-0.33-0.546-0.154-1.257,0.392-1.587l18.898-11.405c0.546-0.33,1.257-0.154,1.586,0.392l0.189,0.313
					C396.859,355.733,396.683,356.443,396.137,356.773z"/>
			</g>
			<path style="fill:none;stroke:#263238;stroke-linecap:round;stroke-linejoin:round;stroke-miterlimit:10;" d="M304.183,248.505
				l30.486-20.287L373.69,116.03l-12.909-50.512c-0.459-1.795,1.331-3.343,3.041-2.63l49.537,20.641
				c2.931,1.221,4.839,4.084,4.839,7.259v349.547h-91.457V279.429L304.183,248.505z"/>
			<g>
				<g>
					<path style="fill:#263238;" d="M418.197,107.45v32.853l-3.509,4.273l-32.482,39.592c-0.023,0.023-0.035,0.046-0.058,0.069
						l-7.342,8.94c-2.061,2.513-5.049,3.81-8.071,3.81c-2.328,0-4.667-0.764-6.601-2.362c-4.447-3.648-5.095-10.214-1.448-14.672
						l7.342-8.94c0.023-0.035,0.058-0.07,0.081-0.093l48.578-59.197L418.197,107.45z"/>
				</g>
				<g>
					<path style="fill:#FFFFFF;" d="M366.739,196.993c-2.327,0-4.667-0.775-6.607-2.366c-4.449-3.652-5.096-10.219-1.444-14.669
						l7.344-8.948c3.652-4.449,10.219-5.095,14.668-1.444c4.449,3.652,5.096,10.219,1.444,14.668l-7.344,8.948
						C372.741,195.693,369.752,196.993,366.739,196.993z"/>
				</g>
			</g>
			<g>
				<g>
					<path style="fill:#263238;" d="M418.197,374.718v29.471l-3.509,3.509l-9.426,9.426c-0.058,0.069-0.116,0.139-0.185,0.197
						l-11.846,11.835c-2.027,2.038-4.702,3.046-7.365,3.046c-2.663,0-5.338-1.007-7.365-3.046c-4.076-4.076-4.076-10.677,0-14.741
						l11.835-11.835c0.127-0.127,0.255-0.255,0.382-0.371l23.971-23.982L418.197,374.718z"/>
				</g>
				<g>
					<path style="fill:#FFFFFF;" d="M385.866,432.206c-2.668,0-5.334-1.018-7.37-3.052c-4.07-4.07-4.07-10.67,0-14.74l11.837-11.837
						c4.071-4.069,10.669-4.069,14.74,0c4.07,4.07,4.07,10.67,0,14.74l-11.837,11.837
						C391.2,431.188,388.533,432.206,385.866,432.206z"/>
				</g>
			</g>
		</g>
		<rect x="251.189" y="339.963" style="fill:#C7C7C7;" width="10.036" height="14.668"/>
		<rect x="268.172" y="339.963" style="fill:#C7C7C7;" width="10.036" height="14.668"/>
		<rect x="251.189" y="314.873" style="fill:#919191;" width="10.036" height="14.668"/>
		<rect x="268.172" y="314.873" style="fill:#919191;" width="10.036" height="14.668"/>
		<polygon style="fill:#92E3A9;" points="278.208,314.873 274.206,329.551 264.885,329.551 268.172,314.873 		"/>
		<polygon style="fill:#92E3A9;" points="260.565,314.873 256.563,329.551 247.242,329.551 250.529,314.873 		"/>
	</g>
</g>
<g id="Character">
	<g>
		<g>
			<g>
				<path style="fill:#FFFFFF;stroke:#263238;stroke-linecap:round;stroke-linejoin:round;stroke-miterlimit:10;" d="
					M203.763,425.779c0,0,10.474,7.054,15.818,7.482c5.344,0.427,8.764,1.71,8.123,4.061c-0.641,2.351-5.13,5.13-13.68,5.985
					c-8.55,0.855-13.039-0.641-19.238-0.855c-6.199-0.214-11.543,2.565-15.177-0.641c-3.634-3.206-3.206-5.558-2.993-7.695
					c0.214-2.138,4.703-1.924,11.971-4.275C195.854,427.489,203.763,425.779,203.763,425.779z"/>
				<path style="fill:#FFFFFF;stroke:#263238;stroke-linecap:round;stroke-linejoin:round;stroke-miterlimit:10;" d="
					M227.704,437.322c0.185-0.677,0.023-1.263-0.415-1.767c-3.09,2.67-10.614,6.221-15.617,6.043
					c-5.985-0.214-11.543-1.71-22.872-1.496c-7.792,0.147-10.023,0.193-10.656,0.207c0.395,0.481,0.871,0.979,1.464,1.503
					c3.634,3.207,8.978,0.428,15.177,0.641c6.199,0.214,10.688,1.71,19.238,0.855C222.574,442.452,227.063,439.673,227.704,437.322z
					"/>
			</g>
			<g>
				<path style="fill:#9C9C9C;stroke:#263238;stroke-linecap:round;stroke-linejoin:round;stroke-miterlimit:10;" d="
					M197.683,315.512c0,0,16.367,39.836,15.44,46.321c-0.926,6.485-11.735,33.66-12.661,38.292
					c-0.926,4.632,0.618,13.279,0.618,13.279s2.779,0.926,3.088,4.014c0.309,3.088,1.544,9.264,1.544,9.264
					s-6.176,4.632-12.97,6.485c-6.794,1.853-14.514,2.47-15.749,2.47s-2.471-4.941-3.088-8.338
					c-0.618-3.397,5.25-10.808,7.411-15.132c2.162-4.323,7.72-24.396,11.426-31.19c3.706-6.794,8.955-26.866,8.338-34.587
					c-0.618-7.72-6.485-23.161-6.485-28.102C194.595,313.35,197.683,312.423,197.683,315.512z"/>
				<path style="fill:none;stroke:#263238;stroke-linecap:round;stroke-linejoin:round;stroke-miterlimit:10;" d="M176.188,424.069
					c0,0,3.848,1.924,11.115,0.427c7.268-1.496,10.474-4.917,6.626-4.703c-3.848,0.214-8.764,1.924-8.764,1.924"/>
			</g>
			<g>
				<path style="fill:#FFFFFF;stroke:#263238;stroke-linecap:round;stroke-linejoin:round;stroke-miterlimit:10;" d="
					M179.181,430.814c0,0,11.329,7.054,14.536,7.268c3.206,0.214,5.344,2.779,4.275,6.199c-1.069,3.42-9.192,5.13-21.376,5.344
					c-12.184,0.214-25.437-0.855-28.857-1.496c-3.42-0.641-6.627-0.641-6.84-2.779c-0.214-2.137,0-5.771,0-5.771
					s5.344-1.496,10.047-3.42s18.17-4.489,20.521-5.13C173.837,430.386,179.181,430.814,179.181,430.814z"/>
				<path style="fill:#FFFFFF;stroke:#263238;stroke-linecap:round;stroke-linejoin:round;stroke-miterlimit:10;" d="
					M175.547,447.701c-12.311,0.178-29.424-3.064-34.71-3.771c0.014,0.505,0.039,0.992,0.081,1.419
					c0.214,2.138,3.42,2.138,6.84,2.779c3.42,0.641,16.673,1.71,28.857,1.496c12.184-0.214,20.307-1.924,21.376-5.344
					c0.471-1.508,0.318-2.848-0.274-3.895c-0.441,0.781-1.031,1.715-1.864,2.826C193.289,446.632,190.296,447.487,175.547,447.701z"
					/>
			</g>
			<g>
				<path style="fill:#9C9C9C;stroke:#263238;stroke-linecap:round;stroke-linejoin:round;stroke-miterlimit:10;" d="
					M147.656,308.219c0,0,9.573,23.47,9.882,30.572c0.309,7.103,2.471,17.293,4.632,19.146c2.162,1.853,2.162,1.853,2.162,1.853
					s-6.176,4.323-5.867,9.882c0.309,5.559-6.176,21.925-9.882,29.337c-3.706,7.411-8.647,28.41-9.264,32.116
					c-0.618,3.706,0.309,11.117,0.309,11.117s7.411,0.926,11.426,1.544c4.015,0.618,8.956,0.926,8.956,0.926l2.47-4.941l2.779,5.25
					c0,0,7.103-2.162,10.5-5.25c3.397-3.088,5.867-6.176,5.867-6.176l-4.941-7.103c0,0,25.322-56.821,26.866-64.541
					c1.544-7.72,0.309-16.367,0.309-22.543c0-6.176-7.72-35.513-7.72-35.513L147.656,308.219z"/>
				<path style="fill:none;stroke:#263238;stroke-linecap:round;stroke-linejoin:round;stroke-miterlimit:10;" d="M192.434,326.438
					c0,0-7.103,1.544-12.97,3.397c-5.867,1.853-14.205,2.47-14.205,2.47l1.544,6.794c0,0,8.647,0.618,14.823-0.618
					c6.176-1.235,14.823-3.397,14.823-3.397l-1.853-6.794"/>
				<path style="fill:none;stroke:#263238;stroke-linecap:round;stroke-linejoin:round;stroke-miterlimit:10;" d="M168.347,341.57
					c0,0,3.397,11.117,3.706,12.352c0.309,1.235-2.471,5.867-0.926,7.411c1.544,1.544,12.97,2.162,18.528,1.544
					c5.559-0.618,10.5-3.088,10.808-6.176c0.309-3.088-3.397-16.058-3.397-16.058"/>
				
					<line style="fill:none;stroke:#263238;stroke-linecap:round;stroke-linejoin:round;stroke-miterlimit:10;" x1="175.449" y1="314.086" x2="177.92" y2="326.13"/>
				<path style="fill:none;stroke:#263238;stroke-linecap:round;stroke-linejoin:round;stroke-miterlimit:10;" d="M181.008,365.348
					l-15.132,45.086c0,0-11.426,9.573-12.043,11.735c-0.618,2.162,7.411,10.808,7.411,10.808"/>
				<path style="fill:none;stroke:#263238;stroke-linecap:round;stroke-linejoin:round;stroke-miterlimit:10;" d="M146.73,416.61
					c0,0,29.337-6.794,35.822-16.985"/>
			</g>
		</g>
		<g>
			<path style="fill:#FFFFFF;stroke:#263238;stroke-linecap:round;stroke-linejoin:round;stroke-miterlimit:10;" d="
				M199.319,143.949c0,0-3.664,2.565-2.932,5.863c0.733,3.298,6.596,6.962,4.397,8.428c-2.199,1.466-4.031,2.199-4.031,3.298
				c0,1.099-4.031,15.024-7.329,15.391c-3.298,0.367-11.36-2.199-11.36-2.199s-4.764,4.397-5.863,10.993l-25.651-6.962
				c0,0,3.298-5.863,0.367-12.092c-2.932-6.229-5.863-10.26-5.863-10.26s10.26-23.452,29.682-28.216
				S199.319,143.949,199.319,143.949z"/>
			<path style="fill:none;stroke:#263238;stroke-linecap:round;stroke-linejoin:round;stroke-miterlimit:10;" d="M193.945,165.015
				c0,0-6.847-1.007-7.25-5.437"/>
			
				<line style="fill:none;stroke:#263238;stroke-linecap:round;stroke-linejoin:round;stroke-miterlimit:10;" x1="188.306" y1="158.772" x2="183.876" y2="161.189"/>
			<path style="fill:#263238;stroke:#263238;stroke-linecap:round;stroke-linejoin:round;stroke-miterlimit:10;" d="
				M167.765,165.418c0,0,5.9,7.751,10.3,9.313c0,0-3.655,4.18-4.259,5.589C173.806,180.32,168.369,171.661,167.765,165.418z"/>
		</g>
		<path style="fill:#FFFFFF;stroke:#263238;stroke-linecap:round;stroke-linejoin:round;stroke-miterlimit:10;" d="M138.832,300.499
			c0,0-0.337,8.432,2.361,9.781c2.698,1.349,6.408,4.385,28.669,2.361c22.261-2.024,31.03-7.42,32.38-9.781
			c1.349-2.361,0.675-8.77,0.675-8.77s-19.9,5.734-36.764,5.734S138.832,300.499,138.832,300.499z"/>
		<g>
			<path style="fill:#FFFFFF;stroke:#263238;stroke-linecap:round;stroke-linejoin:round;stroke-miterlimit:10;" d="
				M247.886,226.694l2.936,7.737c0,0-0.532,0.971-2.989,2.982c-2.457,2.01-6.365,3.749-9.649,2.042
				c-3.284-1.707-4.362-4.854-4.362-4.854s4.917-7.006,7.012-8.075C242.929,225.456,247.886,226.694,247.886,226.694z"/>
			
				<line style="fill:#FFFFFF;stroke:#263238;stroke-width:2;stroke-linecap:round;stroke-linejoin:round;stroke-miterlimit:10;" x1="245.849" y1="230.22" x2="252.613" y2="243.417"/>
			<g>
				<path style="fill:#FFFFFF;stroke:#263238;stroke-linecap:round;stroke-linejoin:round;stroke-miterlimit:10;" d="
					M250.367,226.689c0,0,4.569,2.624,3.863,4.459c-0.706,1.836-4.011,4.469-6.669,4.935s-3.456-2.134-2.127-2.367
					C246.763,233.484,250.11,229.131,250.367,226.689z"/>
				<path style="fill:#FFFFFF;stroke:#263238;stroke-linecap:round;stroke-linejoin:round;stroke-miterlimit:10;" d="
					M253.789,232.331c0,0,1.78,2.146,0.997,3.688c-0.783,1.542-5.795,4-7.477,3.417c-1.682-0.583,0.252-3.352,0.252-3.352
					S252.546,233.251,253.789,232.331z"/>
				<path style="fill:#FFFFFF;stroke:#263238;stroke-linecap:round;stroke-linejoin:round;stroke-miterlimit:10;" d="
					M253.743,237.079c0,0,0.499,1.844-0.855,3.134c-1.354,1.291-5.753,2.237-6.813,1.194c-1.061-1.043,1.234-1.972,1.234-1.972
					S251.167,238.408,253.743,237.079z"/>
			</g>
			<path style="fill:#FFFFFF;stroke:#263238;stroke-linecap:round;stroke-linejoin:round;stroke-miterlimit:10;" d="
				M250.367,226.689c-0.579-3.303-3.725-5.511-7.028-4.932c-3.303,0.579-5.511,3.725-4.932,7.028
				c0.579,3.303,3.725,5.511,7.028,4.932C248.737,233.138,250.945,229.992,250.367,226.689z"/>
			<path style="fill:#FFFFFF;stroke:#263238;stroke-linecap:round;stroke-linejoin:round;stroke-miterlimit:10;" d="
				M229.732,230.048c0,0,6.514-7.733,6.887-9.51c0.373-1.777,4.36-2.476,5.299-2.983c0.938-0.507,6.669-4.935,7.018-2.942
				c0.349,1.993,0.151,4.768-1.942,6.504s-6.138,2.103-6.138,2.103s1.812,4.477,0.832,6.703c-0.98,2.226-7.158,6.048-7.158,6.048
				L229.732,230.048z"/>
		</g>
		<path style="fill:#FFFFFF;stroke:#263238;stroke-linecap:round;stroke-linejoin:round;stroke-miterlimit:10;" d="M219.593,241.253
			c0,0-11.735,4.163-16.394,4.628c-4.658,0.465-17.477-2.555-17.477-2.555l0.905-10.868l-0.014-5.089c0,0,6.056,3.503,13.726,6.197
			C208.009,236.26,219.593,241.253,219.593,241.253z"/>
		<path style="fill:#92E3A9;stroke:#263238;stroke-linecap:round;stroke-linejoin:round;stroke-miterlimit:10;" d="M128.039,212.467
			c0,0,7.758,29.681,8.77,38.113c1.012,8.432-4.385,47.22-1.012,50.256c3.373,3.035,17.539,7.42,36.764,4.722
			c19.225-2.698,30.018-7.083,30.356-11.468c0.337-4.385-5.059-24.622-7.758-35.078c-2.698-10.456-3.373-29.681-4.722-42.498
			c-1.349-12.817-1.012-18.888-5.059-23.273c-4.048-4.385-7.083-5.397-11.131-5.734c-4.047-0.337-14.841,1.012-22.935,7.42
			c-8.095,6.408-13.492,14.166-16.864,15.852C131.075,212.467,128.039,212.467,128.039,212.467z"/>
		<path style="fill:#FFFFFF;stroke:#263238;stroke-linecap:round;stroke-linejoin:round;stroke-miterlimit:10;" d="M179.981,186.496
			c0,0-4.722-2.024-7.758-3.373c-3.036-1.349-23.947-6.071-27.32-6.746c-3.373-0.675-11.468-1.349-13.491,1.349
			s-2.698,8.432-2.698,8.432s-9.781,11.805-5.397,21.249s7.758,14.841,12.48,13.154c4.722-1.687,10.793-8.095,20.912-19.563
			c10.118-11.468,21.586-11.468,21.586-11.468S183.354,189.531,179.981,186.496z"/>
		<g>
			<path style="fill:#92E3A9;stroke:#263238;stroke-linecap:round;stroke-linejoin:round;stroke-miterlimit:10;" d="M172.687,190.3
				c0,0,9.156-2.681,15.602,4.229c6.447,6.909,20.246,19.917,22.156,21.345c1.91,1.429,7.876,5,7.876,5s6.872,2.759,12.646,4.995
				c5.774,2.236,26.44,13.232,28.539,13.611c2.099,0.379,2.911,1.285,7.441-0.39c4.53-1.674,10.68-3.923,11.778-3.399
				c1.098,0.523,8.066,3.95,9.115,4.14c1.05,0.19,8.682,1.135,8.159,2.233c-0.523,1.098-2.097,2.006-3.432,2.198
				c-1.335,0.192-6.153-0.137-9.444,0.678c-3.29,0.814-5.48,4.537-12.157,5.499c-6.677,0.961-18.415-2.461-18.415-2.461
				s-23.852-2.359-35.064-4.494c-11.212-2.134-41.804-18.176-44.285-18.841c-2.481-0.665-9.161-2.089-9.161-2.089"/>
			<path style="fill:none;stroke:#263238;stroke-linecap:round;stroke-linejoin:round;stroke-miterlimit:10;" d="M159.997,232.337
				c8.538,0.134,21.174-4.411,21.174-4.411s-4.428,7.112-11.055,10.792"/>
			<path style="fill:#FFFFFF;stroke:#263238;stroke-linecap:round;stroke-linejoin:round;stroke-miterlimit:10;" d="
				M295.998,242.064c0.523-1.098-7.109-2.043-8.159-2.233c-1.05-0.19-8.017-3.617-9.115-4.14c-1.098-0.523-7.248,1.725-11.778,3.399
				c-4.53,1.674-5.342,0.769-7.441,0.39c-1.773-0.32-16.79-8.214-24.893-12.007c0.838,2.917,1.375,6.478,0.325,9.41
				c-1.398,3.904-4.332,6.77-6.271,8.335c11.213,1.506,23.884,2.76,23.884,2.76s11.738,3.422,18.415,2.461
				c6.677-0.961,8.867-4.684,12.157-5.499c3.29-0.814,8.108-0.486,9.444-0.678C293.902,244.07,295.475,243.162,295.998,242.064z"/>
		</g>
		<path style="fill:#263238;stroke:#263238;stroke-linecap:round;stroke-linejoin:round;stroke-miterlimit:10;" d="M161.515,158.273
			l3.895,12.931c0,0-6.02,0.699-20.186-4.194c-14.165-4.893-18.563-22.047-15.73-33.231c2.833-11.184,15.376-28.628,34.499-30.026
			c19.123-1.398,31.872,15.377,35.767,22.717c3.895,7.339,3.895,16.076,2.479,18.173c-1.417,2.097-5.312,5.592-5.312,5.592
			l-4.25-6.291c0,0-1.417,6.64-3.187,7.339c-1.771,0.699-4.25,1.048-4.25,1.048l-4.958-7.339l0.354,7.689
			c0,0-4.958,2.097-6.374,3.145c-1.417,1.049-7.437,4.543-7.437,4.543S163.64,161.069,161.515,158.273z"/>
	</g>
</g>
</svg>
